# xmcd
#
# Track frame offsets:
#	150
#	13672
#	25812
#	38950
#	52408
#	63737
#	75480
#	88709
#	102083
#	114932
#	127493
#	141230
#	155655
#	167515
#	180388
#	193192
#	206605
#	220929
#	233294
#	246758
#	259177
#
# Disc length: 3637 seconds
#
# Revision: 1
# Processed by: cddbd v1.5.2PL0 Copyright (c) Steve Scherf et al.
# Submitted via: audiograbber 1.83.01
#
DISCID=2a0e3315
DTITLE=Lightnin' Hopkins - Broken Hearted Blues (SACD)
DYEAR=2003
DGENRE=Blues
TTITLE0=Hello Central (Give Me 209)
TTITLE1=Mary Contrary
TTITLE2=Bald Headed Woman
TTITLE3=One Kind Favor (See That My Grave Is Kept Clean)
TTITLE4=I Wonder Why
TTITLE5=Tap Dance Boogie
TTITLE6=Down To The River
TTITLE7=New Short-Haired Woman
TTITLE8=Broken Hearted Blues
TTITLE9=New York Boogie
TTITLE10=Long Way From Texas
TTITLE11=Mad As I Can Be
TTITLE12=I'm Beggin' You
TTITLE13=Why Did You Get Mad At Me?
TTITLE14=Home In The Woods
TTITLE15=Praying Ground Blues
TTITLE16=Back Home Boogie
TTITLE17=Studio Chatter/My Heart To Weep
TTITLE18=Everybody's Down On Me
TTITLE19=New Worried Life Blues
TTITLE20=I'll Never Forget The Day
EXTD=
EXTT0=
EXTT1=
EXTT2=
EXTT3=
EXTT4=
EXTT5=
EXTT6=
EXTT7=
EXTT8=
EXTT9=
EXTT10=
EXTT11=
EXTT12=
EXTT13=
EXTT14=
EXTT15=
EXTT16=
EXTT17=
EXTT18=
EXTT19=
EXTT20=
PLAYORDER=
